{
    "asset" : {
        "generator" : "Khronos glTF Blender I/O v1.3.48",
        "version" : "2.0"
    },
    "scene" : 0,
    "scenes" : [
        {
            "name" : "Scene",
            "nodes" : [
                0
            ]
        }
    ],
    "nodes" : [
        {
            "mesh" : 0,
            "name" : "Banana",
            "scale" : [
                1.3386249542236328,
                1.3386249542236328,
                1.3386249542236328
            ],
            "translation" : [
                0,
                0.4443359375,
                0
            ]
        }
    ],
    "materials" : [
        {
            "emissiveFactor" : [
                0,
                0,
                0
            ],
            "name" : "Material_1",
            "pbrMetallicRoughness" : {
                "baseColorFactor" : [
                    0.4960784614086151,
                    0.3960784673690796,
                    0.04901961237192154,
                    1
                ],
                "metallicFactor" : 0,
                "roughnessFactor" : 0.4500536322593689
            }
        },
        {
            "emissiveFactor" : [
                0,
                0,
                0
            ],
            "name" : "Material_2",
            "pbrMetallicRoughness" : {
                "baseColorFactor" : [
                    0.011764707043766975,
                    0.011764707043766975,
                    0.011764707043766975,
                    1
                ],
                "metallicFactor" : 0,
                "roughnessFactor" : 0.4500536322593689
            }
        }
    ],
    "meshes" : [
        {
            "name" : "Banana",
            "primitives" : [
                {
                    "attributes" : {
                        "POSITION" : 0,
                        "NORMAL" : 1,
                        "TEXCOORD_0" : 2
                    },
                    "indices" : 3,
                    "material" : 0
                },
                {
                    "attributes" : {
                        "POSITION" : 4,
                        "NORMAL" : 5,
                        "TEXCOORD_0" : 6
                    },
                    "indices" : 7,
                    "material" : 1
                }
            ]
        }
    ],
    "accessors" : [
        {
            "bufferView" : 0,
            "componentType" : 5126,
            "count" : 909,
            "max" : [
                0.4637269973754883,
                1.1362061500549316,
                2.601837635040283
            ],
            "min" : [
                -0.4637269973754883,
                -0.38775500655174255,
                -2.496617078781128
            ],
            "type" : "VEC3"
        },
        {
            "bufferView" : 1,
            "componentType" : 5126,
            "count" : 909,
            "type" : "VEC3"
        },
        {
            "bufferView" : 2,
            "componentType" : 5126,
            "count" : 909,
            "type" : "VEC2"
        },
        {
            "bufferView" : 3,
            "componentType" : 5123,
            "count" : 909,
            "type" : "SCALAR"
        },
        {
            "bufferView" : 4,
            "componentType" : 5126,
            "count" : 93,
            "max" : [
                0.14262926578521729,
                1.22726309299469,
                2.601837635040283
            ],
            "min" : [
                -0.29634857177734375,
                0.2750858664512634,
                -2.601837635040283
            ],
            "type" : "VEC3"
        },
        {
            "bufferView" : 5,
            "componentType" : 5126,
            "count" : 93,
            "type" : "VEC3"
        },
        {
            "bufferView" : 6,
            "componentType" : 5126,
            "count" : 93,
            "type" : "VEC2"
        },
        {
            "bufferView" : 7,
            "componentType" : 5123,
            "count" : 93,
            "type" : "SCALAR"
        }
    ],
    "bufferViews" : [
        {
            "buffer" : 0,
            "byteLength" : 10908,
            "byteOffset" : 0
        },
        {
            "buffer" : 0,
            "byteLength" : 10908,
            "byteOffset" : 10908
        },
        {
            "buffer" : 0,
            "byteLength" : 7272,
            "byteOffset" : 21816
        },
        {
            "buffer" : 0,
            "byteLength" : 1818,
            "byteOffset" : 29088
        },
        {
            "buffer" : 0,
            "byteLength" : 1116,
            "byteOffset" : 30908
        },
        {
            "buffer" : 0,
            "byteLength" : 1116,
            "byteOffset" : 32024
        },
        {
            "buffer" : 0,
            "byteLength" : 744,
            "byteOffset" : 33140
        },
        {
            "buffer" : 0,
            "byteLength" : 186,
            "byteOffset" : 33884
        }
    ],
    "buffers" : [
        {
            "byteLength" : 34072,
            "uri" : "data:application/octet-stream;base64,"
        }
    ]
}
