{
    "asset" : {
        "generator" : "Khronos glTF Blender I/O v1.3.48",
        "version" : "2.0"
    },
    "scene" : 0,
    "scenes" : [
        {
            "name" : "Scene",
            "nodes" : [
                0
            ]
        }
    ],
    "nodes" : [
        {
            "mesh" : 0,
            "name" : "Banana_piled",
            "scale" : [
                1.3386248350143433,
                1.3386248350143433,
                1.3386248350143433
            ]
        }
    ],
    "materials" : [
        {
            "doubleSided" : true,
            "emissiveFactor" : [
                0,
                0,
                0
            ],
            "name" : "Material.009",
            "pbrMetallicRoughness" : {
                "baseColorTexture" : {
                    "index" : 0,
                    "texCoord" : 0
                },
                "metallicFactor" : 1,
                "roughnessFactor" : 0.45005369186401367
            }
        }
    ],
    "meshes" : [
        {
            "name" : "Mesh.003",
            "primitives" : [
                {
                    "attributes" : {
                        "POSITION" : 0,
                        "NORMAL" : 1,
                        "TEXCOORD_0" : 2
                    },
                    "indices" : 3,
                    "material" : 0
                }
            ]
        }
    ],
    "textures" : [
        {
            "source" : 0
        }
    ],
    "images" : [
        {
            "bufferView" : 4,
            "mimeType" : "image/jpeg",
            "name" : "Banana_piled_texture"
        }
    ],
    "accessors" : [
        {
            "bufferView" : 0,
            "componentType" : 5126,
            "count" : 888,
            "max" : [
                0.4250389337539673,
                0.4540887475013733,
                2.566751718521118
            ],
            "min" : [
                -0.38748645782470703,
                -0.3487057685852051,
                -2.566751480102539
            ],
            "type" : "VEC3"
        },
        {
            "bufferView" : 1,
            "componentType" : 5126,
            "count" : 888,
            "type" : "VEC3"
        },
        {
            "bufferView" : 2,
            "componentType" : 5126,
            "count" : 888,
            "type" : "VEC2"
        },
        {
            "bufferView" : 3,
            "componentType" : 5123,
            "count" : 888,
            "type" : "SCALAR"
        }
    ],
    "bufferViews" : [
        {
            "buffer" : 0,
            "byteLength" : 10656,
            "byteOffset" : 0
        },
        {
            "buffer" : 0,
            "byteLength" : 10656,
            "byteOffset" : 10656
        },
        {
            "buffer" : 0,
            "byteLength" : 7104,
            "byteOffset" : 21312
        },
        {
            "buffer" : 0,
            "byteLength" : 1776,
            "byteOffset" : 28416
        },
        {
            "buffer" : 0,
            "byteLength" : 38319,
            "byteOffset" : 30192
        }
    ],
    "buffers" : [
        {
            "byteLength" : 68512,
            "uri" : "data:application/octet-stream;base64,"
        }
    ]
}
