{
    "asset" : {
        "generator" : "Khronos glTF Blender I/O v1.3.48",
        "version" : "2.0"
    },
    "scene" : 0,
    "scenes" : [
        {
            "name" : "Scene",
            "nodes" : [
                0
            ]
        }
    ],
    "nodes" : [
        {
            "mesh" : 0,
            "name" : "Book",
            "scale" : [
                11.83704948425293,
                11.83704948425293,
                11.83704948425293
            ]
        }
    ],
    "materials" : [
        {
            "doubleSided" : true,
            "emissiveFactor" : [
                0,
                0,
                0
            ],
            "name" : "Book",
            "normalTexture" : {
                "index" : 0,
                "texCoord" : 0
            },
            "pbrMetallicRoughness" : {
                "baseColorTexture" : {
                    "index" : 1,
                    "texCoord" : 0
                },
                "metallicFactor" : 1,
                "roughnessFactor" : 0.5
            }
        }
    ],
    "meshes" : [
        {
            "name" : "Mesh",
            "primitives" : [
                {
                    "attributes" : {
                        "POSITION" : 0,
                        "NORMAL" : 1,
                        "TEXCOORD_0" : 2
                    },
                    "indices" : 3,
                    "material" : 0
                }
            ]
        }
    ],
    "textures" : [
        {
            "source" : 0
        },
        {
            "source" : 1
        }
    ],
    "images" : [
        {
            "bufferView" : 4,
            "mimeType" : "image/png",
            "name" : "Book_normal"
        },
        {
            "bufferView" : 5,
            "mimeType" : "image/png",
            "name" : "Book_baseColor"
        }
    ],
    "accessors" : [
        {
            "bufferView" : 0,
            "componentType" : 5126,
            "count" : 98,
            "max" : [
                0.13962088525295258,
                0.9999999403953552,
                0.770006000995636
            ],
            "min" : [
                -0.13962088525295258,
                -0.9999999403953552,
                -0.7700059413909912
            ],
            "type" : "VEC3"
        },
        {
            "bufferView" : 1,
            "componentType" : 5126,
            "count" : 98,
            "type" : "VEC3"
        },
        {
            "bufferView" : 2,
            "componentType" : 5126,
            "count" : 98,
            "type" : "VEC2"
        },
        {
            "bufferView" : 3,
            "componentType" : 5123,
            "count" : 132,
            "type" : "SCALAR"
        }
    ],
    "bufferViews" : [
        {
            "buffer" : 0,
            "byteLength" : 1176,
            "byteOffset" : 0
        },
        {
            "buffer" : 0,
            "byteLength" : 1176,
            "byteOffset" : 1176
        },
        {
            "buffer" : 0,
            "byteLength" : 784,
            "byteOffset" : 2352
        },
        {
            "buffer" : 0,
            "byteLength" : 264,
            "byteOffset" : 3136
        },
        {
            "buffer" : 0,
            "byteLength" : 2089,
            "byteOffset" : 3400
        },
        {
            "buffer" : 0,
            "byteLength" : 3419,
            "byteOffset" : 5492
        }
    ],
    "buffers" : [
        {
            "byteLength" : 8912,
            "uri" : "data:application/octet-stream;base64,"
        }
    ]
}
