{
    "asset" : {
        "generator" : "Khronos glTF Blender I/O v1.3.48",
        "version" : "2.0"
    },
    "scene" : 0,
    "scenes" : [
        {
            "name" : "Scene",
            "nodes" : [
                0
            ]
        }
    ],
    "nodes" : [
        {
            "mesh" : 0,
            "name" : "Fish",
            "translation" : [
                -0.03685922175645828,
                -0.01899697445333004,
                0
            ]
        }
    ],
    "materials" : [
        {
            "doubleSided" : true,
            "emissiveFactor" : [
                0,
                0,
                0
            ],
            "name" : "Material #331",
            "pbrMetallicRoughness" : {
                "baseColorFactor" : [
                    0.14509804546833038,
                    0.14509804546833038,
                    0.14509804546833038,
                    1
                ],
                "metallicFactor" : 1,
                "roughnessFactor" : 0.858578622341156
            }
        },
        {
            "doubleSided" : true,
            "emissiveFactor" : [
                0,
                0,
                0
            ],
            "name" : "Material #343",
            "pbrMetallicRoughness" : {
                "baseColorFactor" : [
                    0.5882353186607361,
                    0.062745101749897,
                    0.14509804546833038,
                    1
                ],
                "metallicFactor" : 1,
                "roughnessFactor" : 0.858578622341156
            }
        },
        {
            "doubleSided" : true,
            "emissiveFactor" : [
                0,
                0,
                0
            ],
            "name" : "Material #166.001",
            "pbrMetallicRoughness" : {
                "baseColorFactor" : [
                    0,
                    0,
                    0,
                    1
                ],
                "metallicFactor" : 1,
                "roughnessFactor" : 0.858578622341156
            }
        }
    ],
    "meshes" : [
        {
            "name" : "Mesh.006",
            "primitives" : [
                {
                    "attributes" : {
                        "POSITION" : 0,
                        "NORMAL" : 1,
                        "TEXCOORD_0" : 2
                    },
                    "indices" : 3,
                    "material" : 0
                },
                {
                    "attributes" : {
                        "POSITION" : 4,
                        "NORMAL" : 5,
                        "TEXCOORD_0" : 6
                    },
                    "indices" : 7,
                    "material" : 1
                },
                {
                    "attributes" : {
                        "POSITION" : 8,
                        "NORMAL" : 9,
                        "TEXCOORD_0" : 10
                    },
                    "indices" : 11,
                    "material" : 2
                }
            ]
        }
    ],
    "accessors" : [
        {
            "bufferView" : 0,
            "componentType" : 5126,
            "count" : 98,
            "max" : [
                6.79685115814209,
                2.0767769813537598,
                1.5072027444839478
            ],
            "min" : [
                -5.903114318847656,
                -2.076779842376709,
                -1.5072027444839478
            ],
            "type" : "VEC3"
        },
        {
            "bufferView" : 1,
            "componentType" : 5126,
            "count" : 98,
            "type" : "VEC3"
        },
        {
            "bufferView" : 2,
            "componentType" : 5126,
            "count" : 98,
            "type" : "VEC2"
        },
        {
            "bufferView" : 3,
            "componentType" : 5123,
            "count" : 372,
            "type" : "SCALAR"
        },
        {
            "bufferView" : 4,
            "componentType" : 5126,
            "count" : 57,
            "max" : [
                8.805415153503418,
                3.737790584564209,
                2.088900327682495
            ],
            "min" : [
                -1.1523549556732178,
                -2.2419657707214355,
                -2.088900327682495
            ],
            "type" : "VEC3"
        },
        {
            "bufferView" : 5,
            "componentType" : 5126,
            "count" : 57,
            "type" : "VEC3"
        },
        {
            "bufferView" : 6,
            "componentType" : 5126,
            "count" : 57,
            "type" : "VEC2"
        },
        {
            "bufferView" : 7,
            "componentType" : 5123,
            "count" : 168,
            "type" : "SCALAR"
        },
        {
            "bufferView" : 8,
            "componentType" : 5126,
            "count" : 40,
            "max" : [
                -3.974565267562866,
                1.5645924806594849,
                1.2676939964294434
            ],
            "min" : [
                -4.99233865737915,
                0.5869909524917603,
                -1.2676939964294434
            ],
            "type" : "VEC3"
        },
        {
            "bufferView" : 9,
            "componentType" : 5126,
            "count" : 40,
            "type" : "VEC3"
        },
        {
            "bufferView" : 10,
            "componentType" : 5126,
            "count" : 40,
            "type" : "VEC2"
        },
        {
            "bufferView" : 11,
            "componentType" : 5123,
            "count" : 108,
            "type" : "SCALAR"
        }
    ],
    "bufferViews" : [
        {
            "buffer" : 0,
            "byteLength" : 1176,
            "byteOffset" : 0
        },
        {
            "buffer" : 0,
            "byteLength" : 1176,
            "byteOffset" : 1176
        },
        {
            "buffer" : 0,
            "byteLength" : 784,
            "byteOffset" : 2352
        },
        {
            "buffer" : 0,
            "byteLength" : 744,
            "byteOffset" : 3136
        },
        {
            "buffer" : 0,
            "byteLength" : 684,
            "byteOffset" : 3880
        },
        {
            "buffer" : 0,
            "byteLength" : 684,
            "byteOffset" : 4564
        },
        {
            "buffer" : 0,
            "byteLength" : 456,
            "byteOffset" : 5248
        },
        {
            "buffer" : 0,
            "byteLength" : 336,
            "byteOffset" : 5704
        },
        {
            "buffer" : 0,
            "byteLength" : 480,
            "byteOffset" : 6040
        },
        {
            "buffer" : 0,
            "byteLength" : 480,
            "byteOffset" : 6520
        },
        {
            "buffer" : 0,
            "byteLength" : 320,
            "byteOffset" : 7000
        },
        {
            "buffer" : 0,
            "byteLength" : 216,
            "byteOffset" : 7320
        }
    ],
    "buffers" : [
        {
            "byteLength" : 7536,
            "uri" : "data:application/octet-stream;base64,"
        }
    ]
}
