{
    "asset" : {
        "generator" : "Khronos glTF Blender I/O v1.3.48",
        "version" : "2.0"
    },
    "scene" : 0,
    "scenes" : [
        {
            "name" : "Scene",
            "nodes" : [
                0,
                1
            ]
        }
    ],
    "nodes" : [
        {
            "mesh" : 0,
            "name" : "Fridge",
            "scale" : [
                0.3937007784843445,
                0.3937007784843445,
                0.3937007784843445
            ]
        },
        {
            "mesh" : 1,
            "name" : "fridge door",
            "scale" : [
                0.3937007784843445,
                0.3937007784843445,
                0.3937007784843445
            ],
            "translation" : [
                -13.734251022338867,
                26.835084915161133,
                11.016237258911133
            ]
        }
    ],
    "materials" : [
        {
            "emissiveFactor" : [
                0,
                0,
                0
            ],
            "name" : "Color_fridge_1",
            "pbrMetallicRoughness" : {
                "baseColorFactor" : [
                    0.5,
                    0.5,
                    0.5,
                    1
                ],
                "metallicFactor" : 0,
                "roughnessFactor" : 0.4500536322593689
            }
        },
        {
            "emissiveFactor" : [
                0,
                0,
                0
            ],
            "name" : "Color_fridge_2",
            "pbrMetallicRoughness" : {
                "baseColorFactor" : [
                    0.013725490309298038,
                    0.013725490309298038,
                    0.013725490309298038,
                    1
                ],
                "metallicFactor" : 0,
                "roughnessFactor" : 0.4500536322593689
            }
        },
        {
            "emissiveFactor" : [
                0,
                0,
                0
            ],
            "name" : "Color_fridge_3",
            "pbrMetallicRoughness" : {
                "baseColorFactor" : [
                    0.16862745583057404,
                    0.16862745583057404,
                    0.16862745583057404,
                    1
                ],
                "metallicFactor" : 0,
                "roughnessFactor" : 0.4500536322593689
            }
        }
    ],
    "meshes" : [
        {
            "name" : "Fridge",
            "primitives" : [
                {
                    "attributes" : {
                        "POSITION" : 0,
                        "NORMAL" : 1,
                        "TEXCOORD_0" : 2
                    },
                    "indices" : 3,
                    "material" : 0
                },
                {
                    "attributes" : {
                        "POSITION" : 4,
                        "NORMAL" : 5,
                        "TEXCOORD_0" : 6
                    },
                    "indices" : 7,
                    "material" : 1
                },
                {
                    "attributes" : {
                        "POSITION" : 8,
                        "NORMAL" : 9,
                        "TEXCOORD_0" : 10
                    },
                    "indices" : 7,
                    "material" : 2
                }
            ]
        },
        {
            "name" : "fridge door",
            "primitives" : [
                {
                    "attributes" : {
                        "POSITION" : 11,
                        "NORMAL" : 12,
                        "TEXCOORD_0" : 13
                    },
                    "indices" : 14,
                    "material" : 0
                },
                {
                    "attributes" : {
                        "POSITION" : 15,
                        "NORMAL" : 16,
                        "TEXCOORD_0" : 17
                    },
                    "indices" : 18,
                    "material" : 1
                }
            ]
        }
    ],
    "accessors" : [
        {
            "bufferView" : 0,
            "componentType" : 5126,
            "count" : 132,
            "max" : [
                34.88511657714844,
                136.32223510742188,
                28.007593154907227
            ],
            "min" : [
                -34.88511657714844,
                0,
                -27.981292724609375
            ],
            "type" : "VEC3"
        },
        {
            "bufferView" : 1,
            "componentType" : 5126,
            "count" : 132,
            "type" : "VEC3"
        },
        {
            "bufferView" : 2,
            "componentType" : 5126,
            "count" : 132,
            "type" : "VEC2"
        },
        {
            "bufferView" : 3,
            "componentType" : 5123,
            "count" : 132,
            "type" : "SCALAR"
        },
        {
            "bufferView" : 4,
            "componentType" : 5126,
            "count" : 12,
            "max" : [
                32.544593811035156,
                90.2388916015625,
                28.007593154907227
            ],
            "min" : [
                -32.544593811035156,
                50.447879791259766,
                27.981292724609375
            ],
            "type" : "VEC3"
        },
        {
            "bufferView" : 5,
            "componentType" : 5126,
            "count" : 12,
            "type" : "VEC3"
        },
        {
            "bufferView" : 6,
            "componentType" : 5126,
            "count" : 12,
            "type" : "VEC2"
        },
        {
            "bufferView" : 7,
            "componentType" : 5123,
            "count" : 12,
            "type" : "SCALAR"
        },
        {
            "bufferView" : 8,
            "componentType" : 5126,
            "count" : 12,
            "max" : [
                32.97408676147461,
                90.2388916015625,
                27.981292724609375
            ],
            "min" : [
                -32.97408676147461,
                53.32828140258789,
                -26.070262908935547
            ],
            "type" : "VEC3"
        },
        {
            "bufferView" : 9,
            "componentType" : 5126,
            "count" : 12,
            "type" : "VEC3"
        },
        {
            "bufferView" : 10,
            "componentType" : 5126,
            "count" : 12,
            "type" : "VEC2"
        },
        {
            "bufferView" : 11,
            "componentType" : 5126,
            "count" : 36,
            "max" : [
                69.77011108398438,
                68.16111755371094,
                5.300048828125
            ],
            "min" : [
                -0.000118255615234375,
                -68.16111755371094,
                4.9591064453125e-05
            ],
            "type" : "VEC3"
        },
        {
            "bufferView" : 12,
            "componentType" : 5126,
            "count" : 36,
            "type" : "VEC3"
        },
        {
            "bufferView" : 13,
            "componentType" : 5126,
            "count" : 36,
            "type" : "VEC2"
        },
        {
            "bufferView" : 14,
            "componentType" : 5123,
            "count" : 36,
            "type" : "SCALAR"
        },
        {
            "bufferView" : 15,
            "componentType" : 5126,
            "count" : 120,
            "max" : [
                65.7293472290039,
                5.88763427734375,
                10.727447509765625
            ],
            "min" : [
                62.099246978759766,
                -10.309066772460938,
                3.8686084747314453
            ],
            "type" : "VEC3"
        },
        {
            "bufferView" : 16,
            "componentType" : 5126,
            "count" : 120,
            "type" : "VEC3"
        },
        {
            "bufferView" : 17,
            "componentType" : 5126,
            "count" : 120,
            "type" : "VEC2"
        },
        {
            "bufferView" : 18,
            "componentType" : 5123,
            "count" : 120,
            "type" : "SCALAR"
        }
    ],
    "bufferViews" : [
        {
            "buffer" : 0,
            "byteLength" : 1584,
            "byteOffset" : 0
        },
        {
            "buffer" : 0,
            "byteLength" : 1584,
            "byteOffset" : 1584
        },
        {
            "buffer" : 0,
            "byteLength" : 1056,
            "byteOffset" : 3168
        },
        {
            "buffer" : 0,
            "byteLength" : 264,
            "byteOffset" : 4224
        },
        {
            "buffer" : 0,
            "byteLength" : 144,
            "byteOffset" : 4488
        },
        {
            "buffer" : 0,
            "byteLength" : 144,
            "byteOffset" : 4632
        },
        {
            "buffer" : 0,
            "byteLength" : 96,
            "byteOffset" : 4776
        },
        {
            "buffer" : 0,
            "byteLength" : 24,
            "byteOffset" : 4872
        },
        {
            "buffer" : 0,
            "byteLength" : 144,
            "byteOffset" : 4896
        },
        {
            "buffer" : 0,
            "byteLength" : 144,
            "byteOffset" : 5040
        },
        {
            "buffer" : 0,
            "byteLength" : 96,
            "byteOffset" : 5184
        },
        {
            "buffer" : 0,
            "byteLength" : 432,
            "byteOffset" : 5280
        },
        {
            "buffer" : 0,
            "byteLength" : 432,
            "byteOffset" : 5712
        },
        {
            "buffer" : 0,
            "byteLength" : 288,
            "byteOffset" : 6144
        },
        {
            "buffer" : 0,
            "byteLength" : 72,
            "byteOffset" : 6432
        },
        {
            "buffer" : 0,
            "byteLength" : 1440,
            "byteOffset" : 6504
        },
        {
            "buffer" : 0,
            "byteLength" : 1440,
            "byteOffset" : 7944
        },
        {
            "buffer" : 0,
            "byteLength" : 960,
            "byteOffset" : 9384
        },
        {
            "buffer" : 0,
            "byteLength" : 240,
            "byteOffset" : 10344
        }
    ],
    "buffers" : [
        {
            "byteLength" : 10584,
            "uri" : "data:application/octet-stream;base64,"
        }
    ]
}
