{
    "asset" : {
        "generator" : "Khronos glTF Blender I/O v1.3.48",
        "version" : "2.0"
    },
    "scene" : 0,
    "scenes" : [
        {
            "name" : "Scene",
            "nodes" : [
                0
            ]
        }
    ],
    "nodes" : [
        {
            "mesh" : 0,
            "name" : "Milk_cart",
            "translation" : [
                0,
                -0.12182018160820007,
                0
            ]
        }
    ],
    "materials" : [
        {
            "doubleSided" : true,
            "emissiveFactor" : [
                0,
                0,
                0
            ],
            "name" : "Material #99.001",
            "pbrMetallicRoughness" : {
                "baseColorFactor" : [
                    0.9803921580314636,
                    0.9803921580314636,
                    0.9960784316062927,
                    1
                ],
                "metallicFactor" : 1,
                "roughnessFactor" : 0.858578622341156
            }
        },
        {
            "doubleSided" : true,
            "emissiveFactor" : [
                0,
                0,
                0
            ],
            "name" : "Material #402",
            "pbrMetallicRoughness" : {
                "baseColorFactor" : [
                    0.33725491166114807,
                    0.4588235318660736,
                    0.9960784316062927,
                    1
                ],
                "metallicFactor" : 1,
                "roughnessFactor" : 0.858578622341156
            }
        },
        {
            "doubleSided" : true,
            "emissiveFactor" : [
                0,
                0,
                0
            ],
            "name" : "Material #84.001",
            "pbrMetallicRoughness" : {
                "baseColorFactor" : [
                    0.09803921729326248,
                    0.05098039284348488,
                    0.43529412150382996,
                    1
                ],
                "metallicFactor" : 1,
                "roughnessFactor" : 0.858578622341156
            }
        }
    ],
    "meshes" : [
        {
            "name" : "Mesh.007",
            "primitives" : [
                {
                    "attributes" : {
                        "POSITION" : 0,
                        "NORMAL" : 1,
                        "TEXCOORD_0" : 2
                    },
                    "indices" : 3,
                    "material" : 0
                },
                {
                    "attributes" : {
                        "POSITION" : 4,
                        "NORMAL" : 5,
                        "TEXCOORD_0" : 6
                    },
                    "indices" : 7,
                    "material" : 1
                },
                {
                    "attributes" : {
                        "POSITION" : 8,
                        "NORMAL" : 9,
                        "TEXCOORD_0" : 10
                    },
                    "indices" : 11,
                    "material" : 2
                }
            ]
        }
    ],
    "accessors" : [
        {
            "bufferView" : 0,
            "componentType" : 5126,
            "count" : 44,
            "max" : [
                5.368951797485352,
                27.630313873291016,
                5.247593402862549
            ],
            "min" : [
                -5.368951797485352,
                0,
                -5.247593402862549
            ],
            "type" : "VEC3"
        },
        {
            "bufferView" : 1,
            "componentType" : 5126,
            "count" : 44,
            "type" : "VEC3"
        },
        {
            "bufferView" : 2,
            "componentType" : 5126,
            "count" : 44,
            "type" : "VEC2"
        },
        {
            "bufferView" : 3,
            "componentType" : 5123,
            "count" : 60,
            "type" : "SCALAR"
        },
        {
            "bufferView" : 4,
            "componentType" : 5126,
            "count" : 15,
            "max" : [
                5.368951797485352,
                25.951187133789062,
                5.247593402862549
            ],
            "min" : [
                -5.368951797485352,
                0,
                -5.247593402862549
            ],
            "type" : "VEC3"
        },
        {
            "bufferView" : 5,
            "componentType" : 5126,
            "count" : 15,
            "type" : "VEC3"
        },
        {
            "bufferView" : 6,
            "componentType" : 5126,
            "count" : 15,
            "type" : "VEC2"
        },
        {
            "bufferView" : 7,
            "componentType" : 5123,
            "count" : 24,
            "type" : "SCALAR"
        },
        {
            "bufferView" : 8,
            "componentType" : 5126,
            "count" : 74,
            "max" : [
                1.4532395601272583,
                26.374326705932617,
                -1.5224546194076538
            ],
            "min" : [
                -1.8526971340179443,
                23.07010269165039,
                -4.7860236167907715
            ],
            "type" : "VEC3"
        },
        {
            "bufferView" : 9,
            "componentType" : 5126,
            "count" : 74,
            "type" : "VEC3"
        },
        {
            "bufferView" : 10,
            "componentType" : 5126,
            "count" : 74,
            "type" : "VEC2"
        },
        {
            "bufferView" : 11,
            "componentType" : 5123,
            "count" : 204,
            "type" : "SCALAR"
        }
    ],
    "bufferViews" : [
        {
            "buffer" : 0,
            "byteLength" : 528,
            "byteOffset" : 0
        },
        {
            "buffer" : 0,
            "byteLength" : 528,
            "byteOffset" : 528
        },
        {
            "buffer" : 0,
            "byteLength" : 352,
            "byteOffset" : 1056
        },
        {
            "buffer" : 0,
            "byteLength" : 120,
            "byteOffset" : 1408
        },
        {
            "buffer" : 0,
            "byteLength" : 180,
            "byteOffset" : 1528
        },
        {
            "buffer" : 0,
            "byteLength" : 180,
            "byteOffset" : 1708
        },
        {
            "buffer" : 0,
            "byteLength" : 120,
            "byteOffset" : 1888
        },
        {
            "buffer" : 0,
            "byteLength" : 48,
            "byteOffset" : 2008
        },
        {
            "buffer" : 0,
            "byteLength" : 888,
            "byteOffset" : 2056
        },
        {
            "buffer" : 0,
            "byteLength" : 888,
            "byteOffset" : 2944
        },
        {
            "buffer" : 0,
            "byteLength" : 592,
            "byteOffset" : 3832
        },
        {
            "buffer" : 0,
            "byteLength" : 408,
            "byteOffset" : 4424
        }
    ],
    "buffers" : [
        {
            "byteLength" : 4832,
            "uri" : "data:application/octet-stream;base64,"
        }
    ]
}
