{
    "asset" : {
        "generator" : "Khronos glTF Blender I/O v1.3.48",
        "version" : "2.0"
    },
    "scene" : 0,
    "scenes" : [
        {
            "name" : "Scene",
            "nodes" : [
                0,
                1,
                2,
                3
            ]
        }
    ],
    "nodes" : [
        {
            "mesh" : 0,
            "name" : "Box_blue",
            "scale" : [
                0.02539999969303608,
                0.02539999969303608,
                0.02539999969303608
            ],
            "translation" : [
                0,
                -0.09456730633974075,
                0
            ]
        },
        {
            "mesh" : 1,
            "name" : "Grass",
            "scale" : [
                0.009999999776482582,
                0.009999999776482582,
                0.009999999776482582
            ],
            "translation" : [
                10.937920570373535,
                0.005448175128549337,
                -3.3691258430480957
            ]
        },
        {
            "mesh" : 2,
            "name" : "Trees",
            "rotation" : [
                0,
                0.9848077893257141,
                0,
                0.17364810407161713
            ],
            "scale" : [
                0.007635920308530331,
                0.007635919842869043,
                0.007635920308530331
            ],
            "translation" : [
                5.696581840515137,
                1.6123027801513672,
                6.298768997192383
            ]
        },
        {
            "mesh" : 3,
            "name" : "Fance",
            "rotation" : [
                0,
                0.7071068286895752,
                0,
                0.7071067094802856
            ],
            "scale" : [
                0.009999999776482582,
                0.009999999776482582,
                0.009999999776482582
            ],
            "translation" : [
                8.981588363647461,
                0.3167276978492737,
                -4.598321437835693
            ]
        }
    ],
    "animations" : [
        {
            "channels" : [
                {
                    "sampler" : 0,
                    "target" : {
                        "node" : 0,
                        "path" : "translation"
                    }
                },
                {
                    "sampler" : 1,
                    "target" : {
                        "node" : 0,
                        "path" : "rotation"
                    }
                },
                {
                    "sampler" : 2,
                    "target" : {
                        "node" : 0,
                        "path" : "scale"
                    }
                }
            ],
            "name" : "Box_blue|Take 001|BaseLayer",
            "samplers" : [
                {
                    "input" : 16,
                    "interpolation" : "STEP",
                    "output" : 17
                },
                {
                    "input" : 16,
                    "interpolation" : "STEP",
                    "output" : 18
                },
                {
                    "input" : 16,
                    "interpolation" : "STEP",
                    "output" : 19
                }
            ]
        },
        {
            "channels" : [
                {
                    "sampler" : 0,
                    "target" : {
                        "node" : 2,
                        "path" : "translation"
                    }
                },
                {
                    "sampler" : 1,
                    "target" : {
                        "node" : 2,
                        "path" : "rotation"
                    }
                },
                {
                    "sampler" : 2,
                    "target" : {
                        "node" : 2,
                        "path" : "scale"
                    }
                }
            ],
            "name" : "Trees|Take 001|BaseLayer",
            "samplers" : [
                {
                    "input" : 16,
                    "interpolation" : "STEP",
                    "output" : 20
                },
                {
                    "input" : 16,
                    "interpolation" : "STEP",
                    "output" : 21
                },
                {
                    "input" : 16,
                    "interpolation" : "STEP",
                    "output" : 22
                }
            ]
        }
    ],
    "materials" : [
        {
            "doubleSided" : true,
            "emissiveFactor" : [
                0,
                0,
                0
            ],
            "name" : "Material #85.002",
            "pbrMetallicRoughness" : {
                "baseColorFactor" : [
                    0.7215686440467834,
                    0.9607843160629272,
                    0,
                    1
                ],
                "metallicFactor" : 1,
                "roughnessFactor" : 0.858578622341156
            }
        },
        {
            "doubleSided" : true,
            "emissiveFactor" : [
                0,
                0,
                0
            ],
            "name" : "Road",
            "pbrMetallicRoughness" : {
                "baseColorTexture" : {
                    "index" : 0,
                    "texCoord" : 0
                },
                "metallicFactor" : 1,
                "roughnessFactor" : 0.858578622341156
            }
        },
        {
            "doubleSided" : true,
            "emissiveFactor" : [
                0,
                0,
                0
            ],
            "name" : "Tree",
            "pbrMetallicRoughness" : {
                "baseColorTexture" : {
                    "index" : 1,
                    "texCoord" : 0
                },
                "metallicFactor" : 1,
                "roughnessFactor" : 0.858578622341156
            }
        },
        {
            "doubleSided" : true,
            "emissiveFactor" : [
                0,
                0,
                0
            ],
            "name" : "Material #772",
            "pbrMetallicRoughness" : {
                "baseColorFactor" : [
                    0.9882352948188782,
                    0.9882352948188782,
                    0.9882352948188782,
                    1
                ],
                "metallicFactor" : 1,
                "roughnessFactor" : 0.858578622341156
            }
        }
    ],
    "meshes" : [
        {
            "name" : "Mesh.022",
            "primitives" : [
                {
                    "attributes" : {
                        "POSITION" : 0,
                        "NORMAL" : 1,
                        "TEXCOORD_0" : 2
                    },
                    "indices" : 3,
                    "material" : 0
                }
            ]
        },
        {
            "name" : "Mesh.023",
            "primitives" : [
                {
                    "attributes" : {
                        "POSITION" : 4,
                        "NORMAL" : 5,
                        "TEXCOORD_0" : 6
                    },
                    "indices" : 7,
                    "material" : 1
                }
            ]
        },
        {
            "name" : "Mesh.024",
            "primitives" : [
                {
                    "attributes" : {
                        "POSITION" : 8,
                        "NORMAL" : 9,
                        "TEXCOORD_0" : 10
                    },
                    "indices" : 11,
                    "material" : 2
                }
            ]
        },
        {
            "name" : "Mesh.025",
            "primitives" : [
                {
                    "attributes" : {
                        "POSITION" : 12,
                        "NORMAL" : 13,
                        "TEXCOORD_0" : 14
                    },
                    "indices" : 15,
                    "material" : 3
                }
            ]
        }
    ],
    "textures" : [
        {
            "source" : 0
        },
        {
            "source" : 1
        }
    ],
    "images" : [
        {
            "bufferView" : 8,
            "mimeType" : "image/jpeg",
            "name" : "Road_albedo"
        },
        {
            "bufferView" : 13,
            "mimeType" : "image/jpeg",
            "name" : "Tree_albedo"
        }
    ],
    "accessors" : [
        {
            "bufferView" : 0,
            "componentType" : 5126,
            "count" : 56,
            "max" : [
                6.612618446350098,
                8.023594856262207,
                9.565374374389648
            ],
            "min" : [
                -6.612618446350098,
                -0.5773502588272095,
                -9.565374374389648
            ],
            "type" : "VEC3"
        },
        {
            "bufferView" : 1,
            "componentType" : 5126,
            "count" : 56,
            "type" : "VEC3"
        },
        {
            "bufferView" : 2,
            "componentType" : 5126,
            "count" : 56,
            "type" : "VEC2"
        },
        {
            "bufferView" : 3,
            "componentType" : 5123,
            "count" : 84,
            "type" : "SCALAR"
        },
        {
            "bufferView" : 4,
            "componentType" : 5126,
            "count" : 4,
            "max" : [
                -102.11785888671875,
                -0.5448322296142578,
                1312.0341796875
            ],
            "min" : [
                -2085.46630859375,
                -0.5448322296142578,
                -638.2091064453125
            ],
            "type" : "VEC3"
        },
        {
            "bufferView" : 5,
            "componentType" : 5126,
            "count" : 4,
            "type" : "VEC3"
        },
        {
            "bufferView" : 6,
            "componentType" : 5126,
            "count" : 4,
            "type" : "VEC2"
        },
        {
            "bufferView" : 7,
            "componentType" : 5123,
            "count" : 6,
            "type" : "SCALAR"
        },
        {
            "bufferView" : 9,
            "componentType" : 5126,
            "count" : 2566,
            "max" : [
                2018.7930908203125,
                351.8043212890625,
                1887.847412109375
            ],
            "min" : [
                -139.57284545898438,
                -214.9355926513672,
                -751.5880126953125
            ],
            "type" : "VEC3"
        },
        {
            "bufferView" : 10,
            "componentType" : 5126,
            "count" : 2566,
            "type" : "VEC3"
        },
        {
            "bufferView" : 11,
            "componentType" : 5126,
            "count" : 2566,
            "type" : "VEC2"
        },
        {
            "bufferView" : 12,
            "componentType" : 5123,
            "count" : 4056,
            "type" : "SCALAR"
        },
        {
            "bufferView" : 14,
            "componentType" : 5126,
            "count" : 10342,
            "max" : [
                450.580322265625,
                30.596330642700195,
                1.7557792663574219
            ],
            "min" : [
                -1353.5386962890625,
                -30.596330642700195,
                -1812.507568359375
            ],
            "type" : "VEC3"
        },
        {
            "bufferView" : 15,
            "componentType" : 5126,
            "count" : 10342,
            "type" : "VEC3"
        },
        {
            "bufferView" : 16,
            "componentType" : 5126,
            "count" : 10342,
            "type" : "VEC2"
        },
        {
            "bufferView" : 17,
            "componentType" : 5123,
            "count" : 17280,
            "type" : "SCALAR"
        },
        {
            "bufferView" : 18,
            "componentType" : 5126,
            "count" : 1,
            "max" : [
                0.03333333333333333
            ],
            "min" : [
                0.03333333333333333
            ],
            "type" : "SCALAR"
        },
        {
            "bufferView" : 19,
            "componentType" : 5126,
            "count" : 1,
            "type" : "VEC3"
        },
        {
            "bufferView" : 20,
            "componentType" : 5126,
            "count" : 1,
            "type" : "VEC4"
        },
        {
            "bufferView" : 21,
            "componentType" : 5126,
            "count" : 1,
            "type" : "VEC3"
        },
        {
            "bufferView" : 22,
            "componentType" : 5126,
            "count" : 1,
            "type" : "VEC3"
        },
        {
            "bufferView" : 23,
            "componentType" : 5126,
            "count" : 1,
            "type" : "VEC4"
        },
        {
            "bufferView" : 24,
            "componentType" : 5126,
            "count" : 1,
            "type" : "VEC3"
        }
    ],
    "bufferViews" : [
        {
            "buffer" : 0,
            "byteLength" : 672,
            "byteOffset" : 0
        },
        {
            "buffer" : 0,
            "byteLength" : 672,
            "byteOffset" : 672
        },
        {
            "buffer" : 0,
            "byteLength" : 448,
            "byteOffset" : 1344
        },
        {
            "buffer" : 0,
            "byteLength" : 168,
            "byteOffset" : 1792
        },
        {
            "buffer" : 0,
            "byteLength" : 48,
            "byteOffset" : 1960
        },
        {
            "buffer" : 0,
            "byteLength" : 48,
            "byteOffset" : 2008
        },
        {
            "buffer" : 0,
            "byteLength" : 32,
            "byteOffset" : 2056
        },
        {
            "buffer" : 0,
            "byteLength" : 12,
            "byteOffset" : 2088
        },
        {
            "buffer" : 0,
            "byteLength" : 33721,
            "byteOffset" : 2100
        },
        {
            "buffer" : 0,
            "byteLength" : 30792,
            "byteOffset" : 35824
        },
        {
            "buffer" : 0,
            "byteLength" : 30792,
            "byteOffset" : 66616
        },
        {
            "buffer" : 0,
            "byteLength" : 20528,
            "byteOffset" : 97408
        },
        {
            "buffer" : 0,
            "byteLength" : 8112,
            "byteOffset" : 117936
        },
        {
            "buffer" : 0,
            "byteLength" : 84887,
            "byteOffset" : 126048
        },
        {
            "buffer" : 0,
            "byteLength" : 124104,
            "byteOffset" : 210936
        },
        {
            "buffer" : 0,
            "byteLength" : 124104,
            "byteOffset" : 335040
        },
        {
            "buffer" : 0,
            "byteLength" : 82736,
            "byteOffset" : 459144
        },
        {
            "buffer" : 0,
            "byteLength" : 34560,
            "byteOffset" : 541880
        },
        {
            "buffer" : 0,
            "byteLength" : 4,
            "byteOffset" : 576440
        },
        {
            "buffer" : 0,
            "byteLength" : 12,
            "byteOffset" : 576444
        },
        {
            "buffer" : 0,
            "byteLength" : 16,
            "byteOffset" : 576456
        },
        {
            "buffer" : 0,
            "byteLength" : 12,
            "byteOffset" : 576472
        },
        {
            "buffer" : 0,
            "byteLength" : 12,
            "byteOffset" : 576484
        },
        {
            "buffer" : 0,
            "byteLength" : 16,
            "byteOffset" : 576496
        },
        {
            "buffer" : 0,
            "byteLength" : 12,
            "byteOffset" : 576512
        }
    ],
    "buffers" : [
        {
            "byteLength" : 576524,
            "uri" : "data:application/octet-stream;base64,"
        }
    ]
}
