{
    "asset" : {
        "generator" : "Khronos glTF Blender I/O v1.3.48",
        "version" : "2.0"
    },
    "scene" : 0,
    "scenes" : [
        {
            "name" : "Scene",
            "nodes" : [
                0
            ]
        }
    ],
    "nodes" : [
        {
            "mesh" : 0,
            "name" : "Trophy",
            "scale" : [
                0.009999999776482582,
                0.009999999776482582,
                0.009999999776482582
            ]
        }
    ],
    "materials" : [
        {
            "doubleSided" : true,
            "emissiveFactor" : [
                0,
                0,
                0
            ],
            "name" : "Trophy",
            "normalTexture" : {
                "index" : 0,
                "texCoord" : 0
            },
            "pbrMetallicRoughness" : {
                "baseColorTexture" : {
                    "index" : 1,
                    "texCoord" : 0
                },
                "metallicFactor" : 1,
                "roughnessFactor" : 0.5
            }
        }
    ],
    "meshes" : [
        {
            "name" : "Mesh.002",
            "primitives" : [
                {
                    "attributes" : {
                        "POSITION" : 0,
                        "NORMAL" : 1,
                        "TEXCOORD_0" : 2
                    },
                    "indices" : 3,
                    "material" : 0
                }
            ]
        }
    ],
    "textures" : [
        {
            "source" : 0
        },
        {
            "source" : 1
        }
    ],
    "images" : [
        {
            "bufferView" : 4,
            "mimeType" : "image/png",
            "name" : "Material _37_normal"
        },
        {
            "bufferView" : 5,
            "mimeType" : "image/png",
            "name" : "Material _37_baseColor"
        }
    ],
    "accessors" : [
        {
            "bufferView" : 0,
            "componentType" : 5126,
            "count" : 4243,
            "max" : [
                45.163272857666016,
                50.062255859375,
                28.0395565032959
            ],
            "min" : [
                -45.163272857666016,
                -50.062255859375,
                -28.0395565032959
            ],
            "type" : "VEC3"
        },
        {
            "bufferView" : 1,
            "componentType" : 5126,
            "count" : 4243,
            "type" : "VEC3"
        },
        {
            "bufferView" : 2,
            "componentType" : 5126,
            "count" : 4243,
            "type" : "VEC2"
        },
        {
            "bufferView" : 3,
            "componentType" : 5123,
            "count" : 4317,
            "type" : "SCALAR"
        }
    ],
    "bufferViews" : [
        {
            "buffer" : 0,
            "byteLength" : 50916,
            "byteOffset" : 0
        },
        {
            "buffer" : 0,
            "byteLength" : 50916,
            "byteOffset" : 50916
        },
        {
            "buffer" : 0,
            "byteLength" : 33944,
            "byteOffset" : 101832
        },
        {
            "buffer" : 0,
            "byteLength" : 8634,
            "byteOffset" : 135776
        },
        {
            "buffer" : 0,
            "byteLength" : 3041,
            "byteOffset" : 144412
        },
        {
            "buffer" : 0,
            "byteLength" : 7612,
            "byteOffset" : 147456
        }
    ],
    "buffers" : [
        {
            "byteLength" : 155068,
            "uri" : "data:application/octet-stream;base64,"
        }
    ]
}
