{
    "asset" : {
        "generator" : "Khronos glTF Blender I/O v1.3.48",
        "version" : "2.0"
    },
    "scene" : 0,
    "scenes" : [
        {
            "name" : "Scene",
            "nodes" : [
                0
            ]
        }
    ],
    "nodes" : [
        {
            "mesh" : 0,
            "name" : "Banana_pill",
            "rotation" : [
                -0.7071068286895752,
                0,
                0,
                0.7071067094802856
            ],
            "scale" : [
                1.3386249542236328,
                1.3386249542236328,
                1.3386249542236328
            ]
        }
    ],
    "materials" : [
        {
            "emissiveFactor" : [
                0,
                0,
                0
            ],
            "name" : "Yellow",
            "pbrMetallicRoughness" : {
                "baseColorFactor" : [
                    0.4960784614086151,
                    0.3960784673690796,
                    0.04901961237192154,
                    1
                ],
                "metallicFactor" : 0,
                "roughnessFactor" : 0.4500536322593689
            }
        },
        {
            "emissiveFactor" : [
                0,
                0,
                0
            ],
            "name" : "Black",
            "pbrMetallicRoughness" : {
                "baseColorFactor" : [
                    0.011764707043766975,
                    0.011764707043766975,
                    0.011764707043766975,
                    1
                ],
                "metallicFactor" : 0,
                "roughnessFactor" : 0.4500536322593689
            }
        },
        {
            "emissiveFactor" : [
                0,
                0,
                0
            ],
            "name" : "Inner_color",
            "pbrMetallicRoughness" : {
                "baseColorFactor" : [
                    0.49803924560546875,
                    0.45098042488098145,
                    0.2666666805744171,
                    1
                ],
                "metallicFactor" : 0,
                "roughnessFactor" : 0.4500536322593689
            }
        }
    ],
    "meshes" : [
        {
            "name" : "Banana_pill",
            "primitives" : [
                {
                    "attributes" : {
                        "POSITION" : 0,
                        "NORMAL" : 1,
                        "TEXCOORD_0" : 2
                    },
                    "indices" : 3,
                    "material" : 0
                },
                {
                    "attributes" : {
                        "POSITION" : 4,
                        "NORMAL" : 5,
                        "TEXCOORD_0" : 6
                    },
                    "indices" : 7,
                    "material" : 1
                },
                {
                    "attributes" : {
                        "POSITION" : 8,
                        "NORMAL" : 9,
                        "TEXCOORD_0" : 10
                    },
                    "indices" : 11,
                    "material" : 2
                }
            ]
        }
    ],
    "accessors" : [
        {
            "bufferView" : 0,
            "componentType" : 5126,
            "count" : 714,
            "max" : [
                1.6649565696716309,
                2.0625667572021484,
                2.630133867263794
            ],
            "min" : [
                -1.7341630458831787,
                -1.7833749055862427,
                0.01648998260498047
            ],
            "type" : "VEC3"
        },
        {
            "bufferView" : 1,
            "componentType" : 5126,
            "count" : 714,
            "type" : "VEC3"
        },
        {
            "bufferView" : 2,
            "componentType" : 5126,
            "count" : 714,
            "type" : "VEC2"
        },
        {
            "bufferView" : 3,
            "componentType" : 5123,
            "count" : 714,
            "type" : "SCALAR"
        },
        {
            "bufferView" : 4,
            "componentType" : 5126,
            "count" : 18,
            "max" : [
                0.16084599494934082,
                0.5080156922340393,
                2.630133867263794
            ],
            "min" : [
                -0.11296415328979492,
                0.2639402747154236,
                2.5639684200286865
            ],
            "type" : "VEC3"
        },
        {
            "bufferView" : 5,
            "componentType" : 5126,
            "count" : 18,
            "type" : "VEC3"
        },
        {
            "bufferView" : 6,
            "componentType" : 5126,
            "count" : 18,
            "type" : "VEC2"
        },
        {
            "bufferView" : 7,
            "componentType" : 5123,
            "count" : 18,
            "type" : "SCALAR"
        },
        {
            "bufferView" : 8,
            "componentType" : 5126,
            "count" : 1020,
            "max" : [
                1.6817582845687866,
                2.081857681274414,
                2.601837635040283
            ],
            "min" : [
                -1.754671573638916,
                -1.8044443130493164,
                -0.0061910152435302734
            ],
            "type" : "VEC3"
        },
        {
            "bufferView" : 9,
            "componentType" : 5126,
            "count" : 1020,
            "type" : "VEC3"
        },
        {
            "bufferView" : 10,
            "componentType" : 5126,
            "count" : 1020,
            "type" : "VEC2"
        },
        {
            "bufferView" : 11,
            "componentType" : 5123,
            "count" : 1020,
            "type" : "SCALAR"
        }
    ],
    "bufferViews" : [
        {
            "buffer" : 0,
            "byteLength" : 8568,
            "byteOffset" : 0
        },
        {
            "buffer" : 0,
            "byteLength" : 8568,
            "byteOffset" : 8568
        },
        {
            "buffer" : 0,
            "byteLength" : 5712,
            "byteOffset" : 17136
        },
        {
            "buffer" : 0,
            "byteLength" : 1428,
            "byteOffset" : 22848
        },
        {
            "buffer" : 0,
            "byteLength" : 216,
            "byteOffset" : 24276
        },
        {
            "buffer" : 0,
            "byteLength" : 216,
            "byteOffset" : 24492
        },
        {
            "buffer" : 0,
            "byteLength" : 144,
            "byteOffset" : 24708
        },
        {
            "buffer" : 0,
            "byteLength" : 36,
            "byteOffset" : 24852
        },
        {
            "buffer" : 0,
            "byteLength" : 12240,
            "byteOffset" : 24888
        },
        {
            "buffer" : 0,
            "byteLength" : 12240,
            "byteOffset" : 37128
        },
        {
            "buffer" : 0,
            "byteLength" : 8160,
            "byteOffset" : 49368
        },
        {
            "buffer" : 0,
            "byteLength" : 2040,
            "byteOffset" : 57528
        }
    ],
    "buffers" : [
        {
            "byteLength" : 59568,
            "uri" : "data:application/octet-stream;base64,"
        }
    ]
}
