{
    "asset" : {
        "generator" : "Khronos glTF Blender I/O v1.3.48",
        "version" : "2.0"
    },
    "scene" : 0,
    "scenes" : [
        {
            "name" : "Scene",
            "nodes" : [
                0
            ]
        }
    ],
    "nodes" : [
        {
            "mesh" : 0,
            "name" : "Cooker"
        }
    ],
    "materials" : [
        {
            "alphaMode" : "BLEND",
            "emissiveFactor" : [
                0,
                0,
                0
            ],
            "name" : "Material",
            "pbrMetallicRoughness" : {
                "baseColorTexture" : {
                    "index" : 0,
                    "texCoord" : 0
                },
                "metallicFactor" : 0,
                "roughnessFactor" : 0.4500536322593689
            }
        }
    ],
    "meshes" : [
        {
            "name" : "Cooker",
            "primitives" : [
                {
                    "attributes" : {
                        "POSITION" : 0,
                        "NORMAL" : 1,
                        "TEXCOORD_0" : 2
                    },
                    "indices" : 3,
                    "material" : 0
                }
            ]
        }
    ],
    "textures" : [
        {
            "source" : 0
        }
    ],
    "images" : [
        {
            "bufferView" : 4,
            "mimeType" : "image/png",
            "name" : "Cooker_texture"
        }
    ],
    "accessors" : [
        {
            "bufferView" : 0,
            "componentType" : 5126,
            "count" : 750,
            "max" : [
                13.858267784118652,
                26.923397064208984,
                13.976130485534668
            ],
            "min" : [
                -13.858267784118652,
                0,
                -13.149606704711914
            ],
            "type" : "VEC3"
        },
        {
            "bufferView" : 1,
            "componentType" : 5126,
            "count" : 750,
            "type" : "VEC3"
        },
        {
            "bufferView" : 2,
            "componentType" : 5126,
            "count" : 750,
            "type" : "VEC2"
        },
        {
            "bufferView" : 3,
            "componentType" : 5123,
            "count" : 750,
            "type" : "SCALAR"
        }
    ],
    "bufferViews" : [
        {
            "buffer" : 0,
            "byteLength" : 9000,
            "byteOffset" : 0
        },
        {
            "buffer" : 0,
            "byteLength" : 9000,
            "byteOffset" : 9000
        },
        {
            "buffer" : 0,
            "byteLength" : 6000,
            "byteOffset" : 18000
        },
        {
            "buffer" : 0,
            "byteLength" : 1500,
            "byteOffset" : 24000
        },
        {
            "buffer" : 0,
            "byteLength" : 31690,
            "byteOffset" : 25500
        }
    ],
    "buffers" : [
        {
            "byteLength" : 57192,
            "uri" : "data:application/octet-stream;base64,"
        }
    ]
}
