{
    "asset" : {
        "generator" : "Khronos glTF Blender I/O v1.3.48",
        "version" : "2.0"
    },
    "scene" : 0,
    "scenes" : [
        {
            "name" : "Scene",
            "nodes" : [
                0,
                1
            ]
        }
    ],
    "nodes" : [
        {
            "mesh" : 0,
            "name" : "Glass",
            "translation" : [
                0.29537951946258545,
                0,
                0.5204244256019592
            ]
        },
        {
            "mesh" : 1,
            "name" : "Millk",
            "translation" : [
                0.29537951946258545,
                0,
                0.5204244256019592
            ]
        }
    ],
    "materials" : [
        {
            "alphaMode" : "BLEND",
            "emissiveFactor" : [
                0,
                0,
                0
            ],
            "name" : "Glass",
            "pbrMetallicRoughness" : {
                "baseColorFactor" : [
                    0.5,
                    0.5,
                    0.5,
                    0.1499999761581421
                ],
                "metallicFactor" : 0,
                "roughnessFactor" : 0.3288090229034424
            }
        },
        {
            "emissiveFactor" : [
                0,
                0,
                0
            ],
            "name" : "Liquid",
            "pbrMetallicRoughness" : {
                "baseColorFactor" : [
                    0.5,
                    0.5,
                    0.5,
                    1
                ],
                "metallicFactor" : 0,
                "roughnessFactor" : 0.4500536322593689
            }
        }
    ],
    "meshes" : [
        {
            "name" : "Glass",
            "primitives" : [
                {
                    "attributes" : {
                        "POSITION" : 0,
                        "NORMAL" : 1,
                        "TEXCOORD_0" : 2
                    },
                    "indices" : 3,
                    "material" : 0
                }
            ]
        },
        {
            "name" : "Millk",
            "primitives" : [
                {
                    "attributes" : {
                        "POSITION" : 4,
                        "NORMAL" : 5,
                        "TEXCOORD_0" : 6
                    },
                    "indices" : 7,
                    "material" : 1
                }
            ]
        }
    ],
    "accessors" : [
        {
            "bufferView" : 0,
            "componentType" : 5126,
            "count" : 852,
            "max" : [
                1.1626291275024414,
                2.775970697402954,
                1.1449662446975708
            ],
            "min" : [
                -1.1626291275024414,
                0,
                -1.1449662446975708
            ],
            "type" : "VEC3"
        },
        {
            "bufferView" : 1,
            "componentType" : 5126,
            "count" : 852,
            "type" : "VEC3"
        },
        {
            "bufferView" : 2,
            "componentType" : 5126,
            "count" : 852,
            "type" : "VEC2"
        },
        {
            "bufferView" : 3,
            "componentType" : 5123,
            "count" : 852,
            "type" : "SCALAR"
        },
        {
            "bufferView" : 4,
            "componentType" : 5126,
            "count" : 204,
            "max" : [
                1.0910385847091675,
                2.2058095932006836,
                1.0744633674621582
            ],
            "min" : [
                -1.091038703918457,
                0.1348865032196045,
                -1.0744633674621582
            ],
            "type" : "VEC3"
        },
        {
            "bufferView" : 5,
            "componentType" : 5126,
            "count" : 204,
            "type" : "VEC3"
        },
        {
            "bufferView" : 6,
            "componentType" : 5126,
            "count" : 204,
            "type" : "VEC2"
        },
        {
            "bufferView" : 7,
            "componentType" : 5123,
            "count" : 204,
            "type" : "SCALAR"
        }
    ],
    "bufferViews" : [
        {
            "buffer" : 0,
            "byteLength" : 10224,
            "byteOffset" : 0
        },
        {
            "buffer" : 0,
            "byteLength" : 10224,
            "byteOffset" : 10224
        },
        {
            "buffer" : 0,
            "byteLength" : 6816,
            "byteOffset" : 20448
        },
        {
            "buffer" : 0,
            "byteLength" : 1704,
            "byteOffset" : 27264
        },
        {
            "buffer" : 0,
            "byteLength" : 2448,
            "byteOffset" : 28968
        },
        {
            "buffer" : 0,
            "byteLength" : 2448,
            "byteOffset" : 31416
        },
        {
            "buffer" : 0,
            "byteLength" : 1632,
            "byteOffset" : 33864
        },
        {
            "buffer" : 0,
            "byteLength" : 408,
            "byteOffset" : 35496
        }
    ],
    "buffers" : [
        {
            "byteLength" : 35904,
            "uri" : "data:application/octet-stream;base64,"
        }
    ]
}
