{
    "asset" : {
        "generator" : "Khronos glTF Blender I/O v1.3.48",
        "version" : "2.0"
    },
    "scene" : 0,
    "scenes" : [
        {
            "name" : "Scene",
            "nodes" : [
                0
            ]
        }
    ],
    "nodes" : [
        {
            "mesh" : 0,
            "name" : "Gun",
            "scale" : [
                17.586597442626953,
                17.586597442626953,
                17.586597442626953
            ]
        }
    ],
    "materials" : [
        {
            "doubleSided" : true,
            "emissiveFactor" : [
                0,
                0,
                0
            ],
            "name" : "Gun",
            "normalTexture" : {
                "index" : 0,
                "texCoord" : 0
            },
            "pbrMetallicRoughness" : {
                "baseColorTexture" : {
                    "index" : 1,
                    "texCoord" : 0
                },
                "metallicFactor" : 1,
                "roughnessFactor" : 0.5
            }
        }
    ],
    "meshes" : [
        {
            "name" : "Mesh.001",
            "primitives" : [
                {
                    "attributes" : {
                        "POSITION" : 0,
                        "NORMAL" : 1,
                        "TEXCOORD_0" : 2
                    },
                    "indices" : 3,
                    "material" : 0
                }
            ]
        }
    ],
    "textures" : [
        {
            "source" : 0
        },
        {
            "source" : 1
        }
    ],
    "images" : [
        {
            "bufferView" : 4,
            "mimeType" : "image/png",
            "name" : "Gun_Material__36_normal"
        },
        {
            "bufferView" : 5,
            "mimeType" : "image/png",
            "name" : "Gun_Material__36_baseColor"
        }
    ],
    "accessors" : [
        {
            "bufferView" : 0,
            "componentType" : 5126,
            "count" : 1977,
            "max" : [
                1,
                0.5393481254577637,
                0.17826640605926514
            ],
            "min" : [
                -1,
                -0.5393481254577637,
                -0.17826640605926514
            ],
            "type" : "VEC3"
        },
        {
            "bufferView" : 1,
            "componentType" : 5126,
            "count" : 1977,
            "type" : "VEC3"
        },
        {
            "bufferView" : 2,
            "componentType" : 5126,
            "count" : 1977,
            "type" : "VEC2"
        },
        {
            "bufferView" : 3,
            "componentType" : 5123,
            "count" : 2223,
            "type" : "SCALAR"
        }
    ],
    "bufferViews" : [
        {
            "buffer" : 0,
            "byteLength" : 23724,
            "byteOffset" : 0
        },
        {
            "buffer" : 0,
            "byteLength" : 23724,
            "byteOffset" : 23724
        },
        {
            "buffer" : 0,
            "byteLength" : 15816,
            "byteOffset" : 47448
        },
        {
            "buffer" : 0,
            "byteLength" : 4446,
            "byteOffset" : 63264
        },
        {
            "buffer" : 0,
            "byteLength" : 2245,
            "byteOffset" : 67712
        },
        {
            "buffer" : 0,
            "byteLength" : 11871,
            "byteOffset" : 69960
        }
    ],
    "buffers" : [
        {
            "byteLength" : 81832,
            "uri" : "data:application/octet-stream;base64,"
        }
    ]
}
