{
    "asset" : {
        "generator" : "Khronos glTF Blender I/O v1.3.48",
        "version" : "2.0"
    },
    "scene" : 0,
    "scenes" : [
        {
            "name" : "Scene",
            "nodes" : [
                0,
                1
            ]
        }
    ],
    "nodes" : [
        {
            "mesh" : 0,
            "name" : "Tomato",
            "translation" : [
                0,
                1.176025390625,
                0
            ]
        },
        {
            "mesh" : 1,
            "name" : "Plastic bag",
            "rotation" : [
                0,
                0,
                0.21643958985805511,
                0.976296067237854
            ],
            "translation" : [
                0,
                1.176025390625,
                0
            ]
        }
    ],
    "materials" : [
        {
            "alphaMode" : "BLEND",
            "emissiveFactor" : [
                0,
                0,
                0
            ],
            "name" : "Tomato.001",
            "pbrMetallicRoughness" : {
                "baseColorTexture" : {
                    "index" : 0,
                    "texCoord" : 0
                },
                "metallicFactor" : 0,
                "roughnessFactor" : 0.4500536322593689
            }
        },
        {
            "alphaMode" : "BLEND",
            "emissiveFactor" : [
                0,
                0,
                0
            ],
            "name" : "Plastic",
            "pbrMetallicRoughness" : {
                "baseColorFactor" : [
                    0.5,
                    0.5,
                    0.5,
                    0.25
                ],
                "metallicFactor" : 0,
                "roughnessFactor" : 0.3288090229034424
            }
        }
    ],
    "meshes" : [
        {
            "name" : "Tomato.001",
            "primitives" : [
                {
                    "attributes" : {
                        "POSITION" : 0,
                        "NORMAL" : 1,
                        "TEXCOORD_0" : 2
                    },
                    "indices" : 3,
                    "material" : 0
                }
            ]
        },
        {
            "name" : "Plastic bag",
            "primitives" : [
                {
                    "attributes" : {
                        "POSITION" : 4,
                        "NORMAL" : 5,
                        "TEXCOORD_0" : 6
                    },
                    "indices" : 7,
                    "material" : 1
                }
            ]
        }
    ],
    "textures" : [
        {
            "source" : 0
        }
    ],
    "images" : [
        {
            "bufferView" : 4,
            "mimeType" : "image/png",
            "name" : "Tomato"
        }
    ],
    "accessors" : [
        {
            "bufferView" : 0,
            "componentType" : 5126,
            "count" : 3726,
            "max" : [
                1.176432728767395,
                1.1085094213485718,
                1.176432728767395
            ],
            "min" : [
                -1.176432728767395,
                -1.1085096597671509,
                -1.176432728767395
            ],
            "type" : "VEC3"
        },
        {
            "bufferView" : 1,
            "componentType" : 5126,
            "count" : 3726,
            "type" : "VEC3"
        },
        {
            "bufferView" : 2,
            "componentType" : 5126,
            "count" : 3726,
            "type" : "VEC2"
        },
        {
            "bufferView" : 3,
            "componentType" : 5123,
            "count" : 3726,
            "type" : "SCALAR"
        },
        {
            "bufferView" : 5,
            "componentType" : 5126,
            "count" : 3240,
            "max" : [
                1.328409194946289,
                2.118687152862549,
                1.3489017486572266
            ],
            "min" : [
                -1.32840895652771,
                -1.136708378791809,
                -1.3489017486572266
            ],
            "type" : "VEC3"
        },
        {
            "bufferView" : 6,
            "componentType" : 5126,
            "count" : 3240,
            "type" : "VEC3"
        },
        {
            "bufferView" : 7,
            "componentType" : 5126,
            "count" : 3240,
            "type" : "VEC2"
        },
        {
            "bufferView" : 8,
            "componentType" : 5123,
            "count" : 3240,
            "type" : "SCALAR"
        }
    ],
    "bufferViews" : [
        {
            "buffer" : 0,
            "byteLength" : 44712,
            "byteOffset" : 0
        },
        {
            "buffer" : 0,
            "byteLength" : 44712,
            "byteOffset" : 44712
        },
        {
            "buffer" : 0,
            "byteLength" : 29808,
            "byteOffset" : 89424
        },
        {
            "buffer" : 0,
            "byteLength" : 7452,
            "byteOffset" : 119232
        },
        {
            "buffer" : 0,
            "byteLength" : 2102324,
            "byteOffset" : 126684
        },
        {
            "buffer" : 0,
            "byteLength" : 38880,
            "byteOffset" : 2229008
        },
        {
            "buffer" : 0,
            "byteLength" : 38880,
            "byteOffset" : 2267888
        },
        {
            "buffer" : 0,
            "byteLength" : 25920,
            "byteOffset" : 2306768
        },
        {
            "buffer" : 0,
            "byteLength" : 6480,
            "byteOffset" : 2332688
        }
    ],
    "buffers" : [
        {
            "byteLength" : 2339168,
            "uri" : "data:application/octet-stream;base64,"
        }
    ]
}
