{
    "asset" : {
        "generator" : "Khronos glTF Blender I/O v1.3.48",
        "version" : "2.0"
    },
    "scene" : 0,
    "scenes" : [
        {
            "name" : "Scene",
            "nodes" : [
                0
            ]
        }
    ],
    "nodes" : [
        {
            "mesh" : 0,
            "name" : "Tomato",
            "translation" : [
                0,
                1.176025390625,
                0
            ]
        }
    ],
    "materials" : [
        {
            "alphaMode" : "BLEND",
            "emissiveFactor" : [
                0,
                0,
                0
            ],
            "name" : "Tomato",
            "pbrMetallicRoughness" : {
                "baseColorTexture" : {
                    "index" : 0,
                    "texCoord" : 0
                },
                "metallicFactor" : 0,
                "roughnessFactor" : 0.4500536322593689
            }
        }
    ],
    "meshes" : [
        {
            "name" : "Tomato",
            "primitives" : [
                {
                    "attributes" : {
                        "POSITION" : 0,
                        "NORMAL" : 1,
                        "TEXCOORD_0" : 2
                    },
                    "indices" : 3,
                    "material" : 0
                }
            ]
        }
    ],
    "textures" : [
        {
            "source" : 0
        }
    ],
    "images" : [
        {
            "bufferView" : 4,
            "mimeType" : "image/png",
            "name" : "Tomato"
        }
    ],
    "accessors" : [
        {
            "bufferView" : 0,
            "componentType" : 5126,
            "count" : 3726,
            "max" : [
                1.176432728767395,
                1.1085094213485718,
                1.176432728767395
            ],
            "min" : [
                -1.176432728767395,
                -1.1085096597671509,
                -1.176432728767395
            ],
            "type" : "VEC3"
        },
        {
            "bufferView" : 1,
            "componentType" : 5126,
            "count" : 3726,
            "type" : "VEC3"
        },
        {
            "bufferView" : 2,
            "componentType" : 5126,
            "count" : 3726,
            "type" : "VEC2"
        },
        {
            "bufferView" : 3,
            "componentType" : 5123,
            "count" : 3726,
            "type" : "SCALAR"
        }
    ],
    "bufferViews" : [
        {
            "buffer" : 0,
            "byteLength" : 44712,
            "byteOffset" : 0
        },
        {
            "buffer" : 0,
            "byteLength" : 44712,
            "byteOffset" : 44712
        },
        {
            "buffer" : 0,
            "byteLength" : 29808,
            "byteOffset" : 89424
        },
        {
            "buffer" : 0,
            "byteLength" : 7452,
            "byteOffset" : 119232
        },
        {
            "buffer" : 0,
            "byteLength" : 82028,
            "byteOffset" : 126684
        }
    ],
    "buffers" : [
        {
            "byteLength" : 208712,
            "uri" : "data:application/octet-stream;base64,"
        }
    ]
}
